<svg width="79" height="116" viewBox="0 0 79 116" fill="none" xmlns="http://www.w3.org/2000/svg">
<path d="M0 90.9856H3.04298V105.877H0V90.9856Z" fill="#091B31"/>
<path d="M5.88574 98.2932C5.88574 97.2452 6.08292 96.2671 6.47718 95.3588C6.87144 94.4441 7.44692 93.6501 8.20369 92.9769C8.96047 92.3036 9.88893 91.7732 10.9891 91.3858C12.0956 90.9983 13.3611 90.8046 14.7856 90.8046C15.3007 90.8046 15.8158 90.8332 16.331 90.8903C16.8524 90.9412 17.3644 91.0237 17.8667 91.1381C18.3755 91.2524 18.8683 91.3985 19.3453 91.5763C19.8286 91.7478 20.2864 91.9542 20.7189 92.1956L19.3261 94.4822C19.0655 94.3298 18.7697 94.1932 18.439 94.0725C18.1084 93.9455 17.7523 93.8407 17.3707 93.7582C16.9955 93.6692 16.6044 93.6025 16.1974 93.558C15.7968 93.5136 15.393 93.4914 14.9859 93.4914C14.0448 93.4914 13.2054 93.612 12.4676 93.8534C11.73 94.0884 11.1067 94.4219 10.598 94.8538C10.0893 95.2794 9.70136 95.7907 9.43426 96.3877C9.16716 96.9848 9.03357 97.639 9.03357 98.3504C9.03357 99.0872 9.17351 99.7637 9.45331 100.38C9.73311 100.996 10.1306 101.526 10.6457 101.971C11.1608 102.415 11.784 102.765 12.5153 103.019C13.2466 103.267 14.0638 103.39 14.9669 103.39C15.6855 103.39 16.3437 103.311 16.9414 103.152C17.5392 102.987 18.0606 102.755 18.5058 102.457C18.951 102.158 19.3134 101.799 19.5933 101.38C19.8731 100.955 20.0575 100.478 20.1465 99.951H14.9382V97.4644H22.8651V97.4739L22.8747 97.4644C23.0337 98.2265 23.0814 98.9697 23.0178 99.6938C22.9606 100.412 22.7952 101.091 22.5218 101.733C22.2547 102.368 21.8858 102.952 21.4153 103.486C20.9446 104.019 20.3819 104.48 19.7268 104.867C19.0718 105.248 18.3278 105.547 17.4947 105.763C16.6616 105.972 15.7491 106.077 14.757 106.077C13.3707 106.077 12.1274 105.874 11.0273 105.467C9.93346 105.061 9.005 104.505 8.24187 103.8C7.47875 103.095 6.89366 102.269 6.4867 101.323C6.08609 100.377 5.88574 99.3666 5.88574 98.2932Z" fill="#091B31"/>
<path d="M31.527 90.9856H34.7322L41.9433 105.877H38.7671L37.5748 103.371H28.8657L27.7114 105.877H24.5254L31.527 90.9856ZM36.3824 100.885L33.1582 94.1202L30.0199 100.885H36.3824Z" fill="#091B31"/>
<path d="M61.2598 98.3886C61.2598 97.2644 61.4666 96.2354 61.8801 95.3017C62.2929 94.368 62.8717 93.5676 63.6157 92.9007C64.3663 92.2274 65.2635 91.7066 66.3063 91.3382C67.3557 90.9698 68.5157 90.7856 69.7873 90.7856C71.0532 90.7856 72.2109 90.9698 73.2602 91.3382C74.3096 91.7066 75.2059 92.2274 75.95 92.9007C76.7006 93.5676 77.2818 94.368 77.6954 95.3017C78.1089 96.2354 78.3157 97.2644 78.3157 98.3886C78.3157 99.5192 78.1089 100.558 77.6954 101.504C77.2818 102.444 76.7006 103.254 75.95 103.934C75.2059 104.613 74.3096 105.144 73.2602 105.525C72.2109 105.899 71.0532 106.087 69.7873 106.087C68.5157 106.087 67.3557 105.899 66.3063 105.525C65.2635 105.144 64.3663 104.613 63.6157 103.934C62.8717 103.254 62.2929 102.444 61.8801 101.504C61.4666 100.558 61.2598 99.5192 61.2598 98.3886ZM64.2841 98.3886C64.2841 99.1571 64.4201 99.8495 64.6936 100.466C64.9736 101.082 65.3587 101.609 65.848 102.047C66.3437 102.479 66.9258 102.813 67.5934 103.048C68.2682 103.283 68.9993 103.4 69.7873 103.4C70.5762 103.4 71.3048 103.283 71.9723 103.048C72.6464 102.813 73.2285 102.479 73.7177 102.047C74.2078 101.609 74.5921 101.082 74.8721 100.466C75.1522 99.8495 75.2914 99.1571 75.2914 98.3886C75.2914 97.62 75.1522 96.9309 74.8721 96.3211C74.5921 95.7113 74.2078 95.1968 73.7177 94.7776C73.2285 94.3521 72.6464 94.0281 71.9723 93.8058C71.3048 93.5835 70.5762 93.4724 69.7873 93.4724C68.9993 93.4724 68.2682 93.5835 67.5934 93.8058C66.9258 94.0281 66.3437 94.3521 65.848 94.7776C65.3587 95.1968 64.9736 95.7113 64.6936 96.3211C64.4201 96.9309 64.2841 97.62 64.2841 98.3886ZM66.2395 88.337L72.6684 86.5363L73.3359 88.8992L66.8306 90.414L66.2395 88.337Z" fill="#091B31"/>
<path d="M0 112.981C0 112.654 0.0608946 112.349 0.182601 112.067C0.304388 111.782 0.480148 111.536 0.710127 111.328C0.941979 111.118 1.22406 110.954 1.55637 110.834C1.89063 110.714 2.26837 110.654 2.68958 110.654C3.05861 110.654 3.39669 110.693 3.70393 110.769C4.01304 110.844 4.3 110.958 4.56466 111.113L4.1415 111.819C4.06229 111.766 3.97055 111.719 3.86618 111.678C3.76385 111.637 3.6537 111.603 3.53582 111.575C3.41989 111.546 3.29917 111.523 3.17356 111.508C3.0499 111.492 2.92721 111.484 2.8055 111.484C2.51178 111.484 2.24997 111.521 2.02008 111.596C1.79018 111.668 1.59594 111.771 1.43752 111.905C1.28105 112.036 1.16121 112.194 1.07818 112.378C0.997011 112.561 0.95647 112.762 0.95647 112.981C0.95647 113.209 0.998966 113.418 1.08396 113.608C1.16895 113.798 1.29163 113.963 1.452 114.102C1.61433 114.24 1.81142 114.348 2.04328 114.426C2.27708 114.503 2.54076 114.541 2.83449 114.541C2.96775 114.541 3.10012 114.531 3.23152 114.511C3.36291 114.492 3.48942 114.465 3.61121 114.432C3.73487 114.397 3.85364 114.355 3.96761 114.308C4.08167 114.259 4.18791 114.206 4.28641 114.149L4.70957 114.855C4.46225 115.016 4.17634 115.143 3.85169 115.235C3.52711 115.325 3.18226 115.37 2.81707 115.37C2.35141 115.37 1.94282 115.31 1.59113 115.188C1.23953 115.064 0.945805 114.896 0.710127 114.682C0.474368 114.466 0.296653 114.213 0.176819 113.923C0.0589396 113.631 0 113.317 0 112.981Z" fill="#091B31"/>
<path d="M7.23828 112.996C7.23828 112.649 7.30105 112.331 7.42666 112.043C7.55228 111.755 7.72804 111.508 7.95411 111.302C8.18214 111.094 8.45453 110.933 8.77145 110.819C9.09025 110.705 9.44283 110.649 9.82928 110.649C10.2138 110.649 10.5654 110.705 10.8842 110.819C11.203 110.933 11.4754 111.094 11.7014 111.302C11.9295 111.508 12.1063 111.755 12.2318 112.043C12.3574 112.331 12.4202 112.649 12.4202 112.996C12.4202 113.345 12.3574 113.666 12.2318 113.958C12.1063 114.249 11.9295 114.499 11.7014 114.708C11.4754 114.918 11.203 115.082 10.8842 115.2C10.5654 115.315 10.2138 115.373 9.82928 115.373C9.44283 115.373 9.09025 115.315 8.77145 115.2C8.45453 115.082 8.18214 114.918 7.95411 114.708C7.72804 114.499 7.55228 114.249 7.42666 113.958C7.30105 113.666 7.23828 113.345 7.23828 112.996ZM8.15698 112.996C8.15698 113.234 8.19849 113.447 8.28161 113.638C8.3666 113.828 8.48351 113.991 8.63232 114.126C8.78301 114.259 8.95983 114.362 9.1627 114.435C9.36744 114.507 9.58969 114.544 9.82928 114.544C10.0689 114.544 10.29 114.507 10.4929 114.435C10.6977 114.362 10.8746 114.259 11.0233 114.126C11.172 113.991 11.2889 113.828 11.374 113.638C11.459 113.447 11.5015 113.234 11.5015 112.996C11.5015 112.759 11.459 112.546 11.374 112.358C11.2889 112.17 11.172 112.011 11.0233 111.881C10.8746 111.75 10.6977 111.65 10.4929 111.581C10.29 111.513 10.0689 111.478 9.82928 111.478C9.58969 111.478 9.36744 111.513 9.1627 111.581C8.95983 111.65 8.78301 111.75 8.63232 111.881C8.48351 112.011 8.3666 112.17 8.28161 112.358C8.19849 112.546 8.15698 112.759 8.15698 112.996Z" fill="#091B31"/>
<path d="M15.2148 110.71H16.1336L18.9565 112.211V110.71H19.8752V115.309H18.9565V113.199L16.1336 111.708V115.309H15.2148V110.71Z" fill="#091B31"/>
<path d="M23.149 113.941C23.3132 114.035 23.4794 114.12 23.6475 114.197C23.8175 114.271 23.9933 114.335 24.1749 114.388C24.3566 114.439 24.5469 114.478 24.7459 114.506C24.9468 114.533 25.1604 114.547 25.3864 114.547C25.6588 114.547 25.8907 114.529 26.0819 114.494C26.2732 114.456 26.4288 114.406 26.5486 114.344C26.6703 114.279 26.7582 114.202 26.8123 114.114C26.8683 114.026 26.8963 113.93 26.8963 113.826C26.8963 113.659 26.8278 113.528 26.6906 113.432C26.5534 113.334 26.3419 113.285 26.0559 113.285C25.9303 113.285 25.798 113.293 25.6588 113.311C25.5197 113.327 25.3786 113.344 25.2357 113.364C25.0947 113.384 24.9546 113.402 24.8155 113.42C24.6783 113.436 24.5488 113.443 24.4271 113.443C24.2243 113.443 24.0291 113.417 23.8416 113.364C23.6562 113.311 23.491 113.232 23.3461 113.126C23.2031 113.02 23.0891 112.887 23.0041 112.729C22.9191 112.57 22.8765 112.384 22.8765 112.173C22.8765 112.047 22.893 111.922 22.9259 111.799C22.9606 111.675 23.0147 111.558 23.0881 111.446C23.1635 111.332 23.2601 111.227 23.3779 111.131C23.4958 111.033 23.6378 110.949 23.804 110.878C23.9721 110.808 24.1653 110.753 24.3837 110.713C24.6039 110.672 24.8541 110.652 25.1342 110.652C25.3371 110.652 25.541 110.663 25.7458 110.687C25.9506 110.708 26.1496 110.74 26.3428 110.781C26.538 110.822 26.7254 110.872 26.9051 110.931C27.0847 110.988 27.2519 111.052 27.4064 111.122L27.0036 111.875C26.8761 111.819 26.7389 111.767 26.592 111.719C26.4452 111.67 26.2916 111.628 26.1313 111.593C25.9709 111.558 25.8047 111.53 25.6327 111.511C25.4627 111.489 25.2888 111.478 25.111 111.478C24.8579 111.478 24.6493 111.497 24.4851 111.534C24.3228 111.571 24.1933 111.619 24.0967 111.678C24.0001 111.735 23.9325 111.8 23.8938 111.872C23.8571 111.943 23.8388 112.014 23.8388 112.084C23.8388 112.222 23.8996 112.334 24.0214 112.423C24.1431 112.509 24.3285 112.552 24.5778 112.552C24.6783 112.552 24.7932 112.545 24.9227 112.531C25.0541 112.516 25.1912 112.499 25.3343 112.481C25.4792 112.464 25.626 112.448 25.7748 112.434C25.9255 112.419 26.0713 112.411 26.2123 112.411C26.479 112.411 26.7147 112.441 26.9195 112.502C27.1262 112.563 27.2992 112.65 27.4383 112.764C27.5774 112.876 27.6827 113.012 27.7542 113.173C27.8257 113.332 27.8614 113.51 27.8614 113.708C27.8614 113.973 27.8006 114.209 27.6788 114.417C27.5591 114.623 27.3872 114.798 27.163 114.941C26.9408 115.082 26.6722 115.19 26.3573 115.264C26.0424 115.337 25.6917 115.373 25.3053 115.373C25.0502 115.373 24.801 115.357 24.5576 115.323C24.3141 115.292 24.0802 115.247 23.8561 115.188C23.634 115.127 23.4214 115.056 23.2185 114.973C23.0176 114.889 22.8312 114.797 22.6592 114.697L23.149 113.941Z" fill="#091B31"/>
<path d="M32.0179 111.528H30.3457V110.71H34.6089V111.528H32.9367V115.309H32.0179V111.528Z" fill="#091B31"/>
<path d="M37.3721 110.71H39.6762C40.024 110.71 40.3253 110.748 40.5804 110.822C40.8354 110.895 41.047 111.001 41.215 111.14C41.3835 111.279 41.508 111.449 41.5886 111.649C41.6717 111.849 41.7132 112.075 41.7132 112.328C41.7132 112.499 41.6936 112.662 41.6529 112.817C41.6122 112.97 41.5496 113.111 41.4641 113.24C41.381 113.37 41.276 113.486 41.1482 113.588C41.0209 113.688 40.8712 113.771 40.6992 113.838L41.6847 115.309H40.5601L39.708 114.002H39.682L38.2908 113.999V115.309H37.3721V110.71ZM39.6994 113.193C39.8733 113.193 40.0249 113.173 40.1544 113.132C40.2858 113.09 40.3949 113.033 40.4819 112.958C40.5707 112.884 40.6364 112.793 40.679 112.687C40.7233 112.579 40.7456 112.46 40.7456 112.328C40.7456 112.072 40.6586 111.873 40.4847 111.734C40.3108 111.593 40.049 111.522 39.6994 111.522H38.2908V113.193H39.6994Z" fill="#091B31"/>
<path d="M44.4131 110.71H45.3322V113.243C45.3322 113.451 45.3599 113.637 45.416 113.799C45.4722 113.96 45.5552 114.097 45.6652 114.208C45.7775 114.32 45.9159 114.405 46.0795 114.464C46.244 114.521 46.4353 114.55 46.6535 114.55C46.87 114.55 47.0605 114.521 47.2249 114.464C47.391 114.405 47.5286 114.32 47.6393 114.208C47.7508 114.097 47.8355 113.96 47.8909 113.799C47.947 113.637 47.9755 113.451 47.9755 113.243V110.71H48.8938V113.355C48.8938 113.657 48.8433 113.932 48.7432 114.179C48.6431 114.426 48.4965 114.638 48.3052 114.814C48.1139 114.991 47.8795 115.127 47.6011 115.223C47.3251 115.319 47.0092 115.367 46.6535 115.367C46.2985 115.367 45.981 115.319 45.7034 115.223C45.4266 115.127 45.193 114.991 45.0017 114.814C44.8104 114.638 44.6646 114.426 44.5637 114.179C44.4636 113.932 44.4131 113.657 44.4131 113.355V110.71Z" fill="#091B31"/>
<path d="M53.1614 111.528H51.4893V110.71H55.7526V111.528H54.0797V115.309H53.1614V111.528Z" fill="#091B31"/>
<path d="M58.248 112.996C58.248 112.649 58.3107 112.331 58.4369 112.043C58.5623 111.755 58.7381 111.508 58.9644 111.302C59.1924 111.094 59.4643 110.933 59.781 110.819C60.1001 110.705 60.4526 110.649 60.8393 110.649C61.2235 110.649 61.5752 110.705 61.8943 110.819C62.2127 110.933 62.4854 111.094 62.7117 111.302C62.9396 111.508 63.1163 111.755 63.2417 112.043C63.367 112.331 63.4305 112.649 63.4305 112.996C63.4305 113.345 63.367 113.666 63.2417 113.958C63.1163 114.249 62.9396 114.499 62.7117 114.708C62.4854 114.918 62.2127 115.082 61.8943 115.2C61.5752 115.315 61.2235 115.373 60.8393 115.373C60.4526 115.373 60.1001 115.315 59.781 115.2C59.4643 115.082 59.1924 114.918 58.9644 114.708C58.7381 114.499 58.5623 114.249 58.4369 113.958C58.3107 113.666 58.248 113.345 58.248 112.996ZM59.1672 112.996C59.1672 113.234 59.2087 113.447 59.2917 113.638C59.3764 113.828 59.4936 113.991 59.6426 114.126C59.7932 114.259 59.9698 114.362 60.1725 114.435C60.3777 114.507 60.5999 114.544 60.8393 114.544C61.0786 114.544 61.3001 114.507 61.5028 114.435C61.7079 114.362 61.8846 114.259 62.0335 114.126C62.1817 113.991 62.2989 113.828 62.3836 113.638C62.4691 113.447 62.5114 113.234 62.5114 112.996C62.5114 112.759 62.4691 112.546 62.3836 112.358C62.2989 112.17 62.1817 112.011 62.0335 111.881C61.8846 111.75 61.7079 111.65 61.5028 111.581C61.3001 111.513 61.0786 111.478 60.8393 111.478C60.5999 111.478 60.3777 111.513 60.1725 111.581C59.9698 111.65 59.7932 111.75 59.6426 111.881C59.4936 112.011 59.3764 112.17 59.2917 112.358C59.2087 112.546 59.1672 112.759 59.1672 112.996Z" fill="#091B31"/>
<path d="M66.2314 110.71H68.5353C68.8829 110.71 69.185 110.748 69.4398 110.822C69.6946 110.895 69.9062 111.001 70.0747 111.14C70.2424 111.279 70.367 111.449 70.4484 111.649C70.5315 111.849 70.573 112.075 70.573 112.328C70.573 112.499 70.5526 112.662 70.5119 112.817C70.4712 112.97 70.4085 113.111 70.3239 113.24C70.2408 113.37 70.135 113.486 70.008 113.588C69.8802 113.688 69.7304 113.771 69.5586 113.838L70.5437 115.309H69.4194L68.5671 114.002H68.541L67.1506 113.999V115.309H66.2314V110.71ZM68.5589 113.193C68.7323 113.193 68.8845 113.173 69.014 113.132C69.1451 113.09 69.2541 113.033 69.3413 112.958C69.43 112.884 69.4959 112.793 69.5383 112.687C69.583 112.579 69.605 112.46 69.605 112.328C69.605 112.072 69.5179 111.873 69.3437 111.734C69.1703 111.593 68.9082 111.522 68.5589 111.522H67.1506V113.193H68.5589Z" fill="#091B31"/>
<path d="M74.9876 110.71H75.9612L78.1527 115.309H77.1872L76.825 114.535H74.1792L73.8283 115.309H72.8604L74.9876 110.71ZM76.4627 113.767L75.4833 111.678L74.53 113.767H76.4627Z" fill="#091B31"/>
<path d="M44.2617 90.9856H52.1217C53.2663 90.9856 54.2587 91.1095 55.098 91.3572C55.9373 91.6049 56.6334 91.9638 57.187 92.4338C57.7397 92.8975 58.15 93.466 58.4171 94.1393C58.6906 94.8125 58.8274 95.5716 58.8274 96.4163C58.8274 97.2103 58.6938 97.944 58.4268 98.6172C58.1598 99.2905 57.7495 99.8748 57.1959 100.37C56.6497 100.859 55.9561 101.244 55.1167 101.523C54.2774 101.796 53.2851 101.933 52.1405 101.933L47.2852 101.923V105.877H44.2617V90.9856ZM52.1982 99.3127C52.7706 99.3127 53.2696 99.246 53.6954 99.1127C54.1276 98.9729 54.4875 98.7792 54.7732 98.5315C55.0663 98.2774 55.282 97.9725 55.422 97.6168C55.5686 97.2548 55.6418 96.8546 55.6418 96.4163C55.6418 95.5335 55.352 94.8475 54.7732 94.3584C54.2009 93.8629 53.3429 93.6152 52.1982 93.6152H47.2852V99.3127H52.1982Z" fill="#091B31"/>
<path d="M6.25852 31.9209L5.29883 30.8129L40.0691 0.304932L41.1764 1.3391L6.25852 31.9209Z" fill="#C5AC6C"/>
<path d="M14.748 3.77686L15.4539 2.49194L70.392 32.2741L69.8065 33.6719L14.748 3.77686Z" fill="#C5AC6C"/>
<path d="M12.9021 30.4436L11.9424 29.3356L23.7539 18.9199L24.8612 19.9542L12.9021 30.4436Z" fill="url(#paint0_linear_16958_5043)"/>
<path d="M12.9763 34.6541L12.0166 33.5461L23.8281 23.1306L24.9354 24.1647L12.9763 34.6541Z" fill="url(#paint1_linear_16958_5043)"/>
<path d="M13.0505 39.0124L12.0908 37.9044L23.9024 27.4888L25.0097 28.5231L13.0505 39.0124Z" fill="url(#paint2_linear_16958_5043)"/>
<path d="M13.1238 43.3707L12.1641 42.2627L23.9757 31.847L25.083 32.8813L13.1238 43.3707Z" fill="url(#paint3_linear_16958_5043)"/>
<path d="M12.6072 48.1722L11.6475 47.0642L23.459 36.6486L24.5663 37.6827L12.6072 48.1722Z" fill="url(#paint4_linear_16958_5043)"/>
<path d="M12.6804 52.3827L11.7207 51.2747L23.5323 40.8591L24.6396 41.8934L12.6804 52.3827Z" fill="url(#paint5_linear_16958_5043)"/>
<path d="M12.9021 56.5932L11.9424 55.4852L23.7539 45.0697L24.8612 46.1038L12.9021 56.5932Z" fill="url(#paint6_linear_16958_5043)"/>
<path d="M12.9763 60.9516L12.0166 59.8436L23.8281 49.4281L24.9354 50.4622L12.9763 60.9516Z" fill="url(#paint7_linear_16958_5043)"/>
<path d="M13.0505 65.3098L12.0908 64.2018L23.9024 53.7862L25.0097 54.8205L13.0505 65.3098Z" fill="url(#paint8_linear_16958_5043)"/>
<path fill-rule="evenodd" clip-rule="evenodd" d="M23.2379 10.5728H25.0097V74.3957H27.6672V76.1685H25.0097H23.2379H13.6411H11.8693H9.35938V74.3957H11.8693V19.1416H13.6411V67.1278L23.2379 58.6653V10.5728Z" fill="url(#paint9_linear_16958_5043)"/>
<path fill-rule="evenodd" clip-rule="evenodd" d="M64.6516 74.4503V63.2414H42.5049V31.847L64.6516 43.8139V30.8868L30.1768 12.1979V68.7816L36.8201 76.1678V76.2232H67.0871V74.4503H64.6516Z" fill="url(#paint10_linear_16958_5043)"/>
<path d="M76.6103 27.2702L33.8291 2.86377" stroke="#ABABAB" stroke-width="0.5"/>
<path d="M75.7985 23.7084L35.0293 0.461914" stroke="#ABABAB" stroke-width="0.5"/>
<path d="M76.0966 49.8231L42.1621 31.4185" stroke="#ABABAB" stroke-width="0.5"/>
<path d="M25.4287 2.21716V74.2735" stroke="#ABABAB" stroke-width="0.5"/>
<path d="M6.04004 11.8221V81" stroke="#ABABAB" stroke-width="0.5"/>
<path d="M30.7832 0V80.9248" stroke="#ABABAB" stroke-width="0.5"/>
<path d="M70.1113 11.8221V80.9139" stroke="#ABABAB" stroke-width="0.5"/>
<path d="M1.4248 76.1627L75.5034 76.1063" stroke="#ABABAB" stroke-width="0.5"/>
<defs>
<linearGradient id="paint0_linear_16958_5043" x1="18.4018" y1="18.9199" x2="18.4018" y2="30.4436" gradientUnits="userSpaceOnUse">
<stop stop-color="#C5AC6C"/>
<stop offset="1" stop-color="#5F5334"/>
</linearGradient>
<linearGradient id="paint1_linear_16958_5043" x1="18.4761" y1="23.1306" x2="18.4761" y2="34.6541" gradientUnits="userSpaceOnUse">
<stop stop-color="#C5AC6C"/>
<stop offset="1" stop-color="#5F5334"/>
</linearGradient>
<linearGradient id="paint2_linear_16958_5043" x1="18.5502" y1="27.4888" x2="18.5502" y2="39.0124" gradientUnits="userSpaceOnUse">
<stop stop-color="#C5AC6C"/>
<stop offset="1" stop-color="#5F5334"/>
</linearGradient>
<linearGradient id="paint3_linear_16958_5043" x1="18.6235" y1="31.847" x2="18.6235" y2="43.3707" gradientUnits="userSpaceOnUse">
<stop stop-color="#C5AC6C"/>
<stop offset="1" stop-color="#5F5334"/>
</linearGradient>
<linearGradient id="paint4_linear_16958_5043" x1="18.107" y1="36.6486" x2="18.107" y2="48.1722" gradientUnits="userSpaceOnUse">
<stop stop-color="#C5AC6C"/>
<stop offset="1" stop-color="#5F5334"/>
</linearGradient>
<linearGradient id="paint5_linear_16958_5043" x1="18.1801" y1="40.8591" x2="18.1801" y2="52.3827" gradientUnits="userSpaceOnUse">
<stop stop-color="#C5AC6C"/>
<stop offset="1" stop-color="#5F5334"/>
</linearGradient>
<linearGradient id="paint6_linear_16958_5043" x1="18.4018" y1="45.0697" x2="18.4018" y2="56.5932" gradientUnits="userSpaceOnUse">
<stop stop-color="#C5AC6C"/>
<stop offset="1" stop-color="#5F5334"/>
</linearGradient>
<linearGradient id="paint7_linear_16958_5043" x1="18.4761" y1="49.4281" x2="18.4761" y2="60.9516" gradientUnits="userSpaceOnUse">
<stop stop-color="#C5AC6C"/>
<stop offset="1" stop-color="#5F5334"/>
</linearGradient>
<linearGradient id="paint8_linear_16958_5043" x1="18.5502" y1="53.7862" x2="18.5502" y2="65.3098" gradientUnits="userSpaceOnUse">
<stop stop-color="#C5AC6C"/>
<stop offset="1" stop-color="#5F5334"/>
</linearGradient>
<linearGradient id="paint9_linear_16958_5043" x1="18.5132" y1="10.5728" x2="18.5132" y2="76.1685" gradientUnits="userSpaceOnUse">
<stop stop-color="#FCEFC1"/>
<stop offset="0.515" stop-color="#CCA955"/>
<stop offset="1" stop-color="#5F3015"/>
</linearGradient>
<linearGradient id="paint10_linear_16958_5043" x1="48.6317" y1="12.1979" x2="48.6317" y2="76.2232" gradientUnits="userSpaceOnUse">
<stop stop-color="#FCEFC1"/>
<stop offset="0.515" stop-color="#CCA955"/>
<stop offset="1" stop-color="#5F3015"/>
</linearGradient>
</defs>
</svg>
