<svg width="220" height="69" viewBox="0 0 220 69" fill="none" xmlns="http://www.w3.org/2000/svg">
<g clip-path="url(#clip0_16958_5092)">
<path d="M8.75913 24.8274L8.0127 23.9656L35.0563 0.237183L35.9175 1.04154L8.75913 24.8274Z" fill="#C5AC6C"/>
<path d="M15.3623 2.93761L15.9113 1.93823L58.6409 25.1021L58.1855 26.1893L15.3623 2.93761Z" fill="#C5AC6C"/>
<path d="M13.9261 23.6783L13.1797 22.8165L22.3664 14.7155L23.2276 15.5199L13.9261 23.6783Z" fill="url(#paint0_linear_16958_5092)"/>
<path d="M13.9837 26.9532L13.2373 26.0914L22.424 17.9905L23.2853 18.7948L13.9837 26.9532Z" fill="url(#paint1_linear_16958_5092)"/>
<path d="M14.0414 30.343L13.2949 29.4812L22.4817 21.3801L23.3429 22.1846L14.0414 30.343Z" fill="url(#paint2_linear_16958_5092)"/>
<path d="M14.099 33.7327L13.3525 32.871L22.5393 24.7699L23.4006 25.5743L14.099 33.7327Z" fill="url(#paint3_linear_16958_5092)"/>
<path d="M13.6976 37.4672L12.9512 36.6055L22.1379 28.5044L22.9992 29.3087L13.6976 37.4672Z" fill="url(#paint4_linear_16958_5092)"/>
<path d="M13.7542 40.7421L13.0078 39.8804L22.1946 31.7793L23.0558 32.5837L13.7542 40.7421Z" fill="url(#paint5_linear_16958_5092)"/>
<path d="M13.9261 44.0169L13.1797 43.1551L22.3664 35.0542L23.2276 35.8585L13.9261 44.0169Z" fill="url(#paint6_linear_16958_5092)"/>
<path d="M13.9837 47.4068L13.2373 46.545L22.424 38.4441L23.2853 39.2484L13.9837 47.4068Z" fill="url(#paint7_linear_16958_5092)"/>
<path d="M14.0414 50.7965L13.2949 49.9347L22.4817 41.8336L23.3429 42.6381L14.0414 50.7965Z" fill="url(#paint8_linear_16958_5092)"/>
<path fill-rule="evenodd" clip-rule="evenodd" d="M21.9653 8.22327H23.3434V57.8634H25.4103V59.2422H23.3434H21.9653H14.5011H13.1231H11.1709V57.8634H13.1231V14.888H14.5011V52.2106L21.9653 45.6286V8.22327Z" fill="url(#paint9_linear_16958_5092)"/>
<path fill-rule="evenodd" clip-rule="evenodd" d="M54.1771 57.9058V49.1877H36.9519V24.7698L54.1771 34.0774V24.023L27.3633 9.48718V53.4968L32.5303 59.2416V59.2848H56.0714V57.9058H54.1771Z" fill="url(#paint10_linear_16958_5092)"/>
<path d="M63.4774 21.2102L30.2031 2.22742" stroke="#ABABAB" stroke-width="0.5"/>
<path d="M62.8461 18.4399L31.1367 0.359253" stroke="#ABABAB" stroke-width="0.5"/>
<path d="M63.078 38.7513L36.6846 24.4365" stroke="#ABABAB" stroke-width="0.5"/>
<path d="M23.6699 1.72449V57.7683" stroke="#ABABAB" stroke-width="0.5"/>
<path d="M8.58984 9.19495V63" stroke="#ABABAB" stroke-width="0.5"/>
<path d="M27.834 0V62.9415" stroke="#ABABAB" stroke-width="0.5"/>
<path d="M58.4229 9.19495V62.933" stroke="#ABABAB" stroke-width="0.5"/>
<path d="M5 59.2377L62.6167 59.1938" stroke="#ABABAB" stroke-width="0.5"/>
<path d="M71.957 16.4048H77.3886V42.9856H71.957V16.4048Z" fill="#091B31"/>
<path d="M82.4629 29.4487C82.4629 27.5781 82.8148 25.8321 83.5186 24.2108C84.2223 22.5783 85.2495 21.161 86.6003 19.9593C87.9511 18.7575 89.6084 17.8108 91.5721 17.1192C93.5472 16.4276 95.806 16.0818 98.3487 16.0818C99.2682 16.0818 100.188 16.1328 101.107 16.2349C102.038 16.3256 102.952 16.4729 103.848 16.6771C104.756 16.8811 105.636 17.1419 106.488 17.4593C107.35 17.7654 108.167 18.1339 108.939 18.5647L106.453 22.6462C105.988 22.3741 105.46 22.1304 104.87 21.9149C104.28 21.6882 103.644 21.5011 102.963 21.3538C102.293 21.195 101.595 21.0759 100.869 20.9966C100.154 20.9173 99.4328 20.8776 98.7063 20.8776C97.0263 20.8776 95.528 21.093 94.2112 21.5238C92.8946 21.9433 91.7821 22.5386 90.874 23.3095C89.966 24.0691 89.2736 24.9818 88.7968 26.0474C88.3201 27.1132 88.0816 28.281 88.0816 29.5508C88.0816 30.8659 88.3314 32.0734 88.8308 33.1731C89.3303 34.2727 90.0397 35.2195 90.9592 36.0131C91.8786 36.8067 92.9911 37.4303 94.2964 37.8838C95.6017 38.326 97.0603 38.547 98.6723 38.547C99.9549 38.547 101.13 38.4054 102.197 38.1218C103.264 37.8271 104.195 37.4133 104.989 36.8804C105.784 36.3475 106.431 35.707 106.93 34.9587C107.43 34.1992 107.759 33.3488 107.918 32.4078H98.6211V27.9692H112.77V27.9862L112.787 27.9692C113.071 29.3296 113.156 30.6561 113.043 31.9486C112.941 33.2298 112.645 34.4429 112.157 35.5879C111.681 36.7218 111.022 37.7647 110.182 38.7171C109.342 39.6694 108.338 40.4915 107.169 41.183C105.999 41.8632 104.671 42.3961 103.184 42.7816C101.697 43.1557 100.068 43.3428 98.2977 43.3428C95.8232 43.3428 93.604 42.9801 91.6403 42.2544C89.6879 41.5288 88.0306 40.5367 86.6685 39.2782C85.3063 38.0198 84.262 36.546 83.5356 34.8567C82.8205 33.1674 82.4629 31.3647 82.4629 29.4487Z" fill="#091B31"/>
<path d="M128.231 16.4048H133.952L146.824 42.9856H141.154L139.026 38.5129H123.481L121.42 42.9856H115.733L128.231 16.4048ZM136.898 34.0743L131.143 21.9999L125.541 34.0743H136.898Z" fill="#091B31"/>
<path d="M150.962 16.4048H164.992C167.035 16.4048 168.806 16.6259 170.304 17.0681C171.802 17.5103 173.045 18.1508 174.033 18.9898C175.02 19.8174 175.752 20.8322 176.228 22.0339C176.717 23.2357 176.961 24.5905 176.961 26.0984C176.961 27.5156 176.723 28.8251 176.246 30.0269C175.769 31.2286 175.037 32.2716 174.049 33.156C173.074 34.029 171.836 34.7148 170.338 35.2137C168.839 35.7012 167.068 35.9449 165.025 35.9449L156.359 35.9281V42.9856H150.962V16.4048ZM165.128 31.2683C166.15 31.2683 167.041 31.1492 167.8 30.9112C168.572 30.6617 169.214 30.3159 169.724 29.8738C170.248 29.4203 170.633 28.876 170.883 28.2412C171.144 27.595 171.275 26.8806 171.275 26.0984C171.275 24.5225 170.758 23.2981 169.724 22.4251C168.703 21.5407 167.171 21.0985 165.128 21.0985H156.359V31.2683H165.128Z" fill="#091B31"/>
<path d="M181.303 29.6188C181.303 27.6121 181.672 25.7753 182.41 24.1087C183.147 22.4421 184.18 21.0135 185.508 19.8231C186.848 18.6214 188.449 17.6917 190.311 17.0341C192.184 16.3766 194.254 16.0477 196.524 16.0477C198.784 16.0477 200.85 16.3766 202.723 17.0341C204.596 17.6917 206.196 18.6214 207.524 19.8231C208.864 21.0135 209.901 22.4421 210.639 24.1087C211.378 25.7753 211.747 27.6121 211.747 29.6188C211.747 31.6368 211.378 33.4904 210.639 35.1797C209.901 36.8577 208.864 38.3033 207.524 39.5164C206.196 40.7295 204.596 41.6762 202.723 42.3564C200.85 43.0253 198.784 43.3598 196.524 43.3598C194.254 43.3598 192.184 43.0253 190.311 42.3564C188.449 41.6762 186.848 40.7295 185.508 39.5164C184.18 38.3033 183.147 36.8577 182.41 35.1797C181.672 33.4904 181.303 31.6368 181.303 29.6188ZM186.701 29.6188C186.701 30.9905 186.944 32.2263 187.432 33.3261C187.932 34.4258 188.619 35.3669 189.492 36.1491C190.377 36.9201 191.416 37.5153 192.608 37.9348C193.813 38.3543 195.117 38.564 196.524 38.564C197.932 38.564 199.233 38.3543 200.424 37.9348C201.627 37.5153 202.666 36.9201 203.54 36.1491C204.414 35.3669 205.1 34.4258 205.6 33.3261C206.1 32.2263 206.348 30.9905 206.348 29.6188C206.348 28.2469 206.1 27.0168 205.6 25.9285C205.1 24.84 204.414 23.9216 203.54 23.1734C202.666 22.4138 201.627 21.8355 200.424 21.4387C199.233 21.0419 197.932 20.8436 196.524 20.8436C195.117 20.8436 193.813 21.0419 192.608 21.4387C191.416 21.8355 190.377 22.4138 189.492 23.1734C188.619 23.9216 187.932 24.84 187.432 25.9285C186.944 27.0168 186.701 28.2469 186.701 29.6188ZM190.191 11.6772L201.667 8.46301L202.858 12.6806L191.246 15.3846L190.191 11.6772Z" fill="#091B31"/>
<path d="M71.957 55.6664C71.957 55.0819 72.0657 54.5375 72.283 54.0334C72.5003 53.5258 72.8141 53.0864 73.2246 52.7153C73.6384 52.3407 74.1419 52.0466 74.7351 51.8331C75.3317 51.6195 76.006 51.5128 76.7578 51.5128C77.4165 51.5128 78.02 51.581 78.5684 51.7175C79.1201 51.8506 79.6323 52.0555 80.1047 52.332L79.3494 53.5922C79.208 53.4977 79.0443 53.4137 78.858 53.3402C78.6753 53.2667 78.4787 53.2055 78.2683 53.1565C78.0614 53.104 77.8459 53.0637 77.6217 53.0356C77.4009 53.0076 77.182 52.9936 76.9647 52.9936C76.4404 52.9936 75.9731 53.0602 75.5628 53.1932C75.1524 53.3227 74.8057 53.5064 74.5229 53.7446C74.2436 53.9791 74.0297 54.2609 73.8815 54.59C73.7366 54.9155 73.6643 55.2744 73.6643 55.6664C73.6643 56.0725 73.7401 56.4453 73.8918 56.785C74.0435 57.1245 74.2625 57.4187 74.5488 57.6671C74.8385 57.9122 75.1903 58.1048 75.6042 58.2448C76.0215 58.3814 76.4922 58.4496 77.0164 58.4496C77.2543 58.4496 77.4906 58.4321 77.7251 58.3971C77.9597 58.362 78.1855 58.3148 78.4029 58.2553C78.6236 58.1923 78.8356 58.1188 79.039 58.0347C79.2426 57.9472 79.4322 57.8527 79.6081 57.7512L80.3634 59.0114C79.9219 59.2986 79.4116 59.5244 78.8321 59.6888C78.2527 59.8499 77.6372 59.9303 76.9854 59.9303C76.1542 59.9303 75.4249 59.8219 74.7971 59.6048C74.1695 59.3844 73.6452 59.0832 73.2246 58.7017C72.8038 58.3165 72.4865 57.8649 72.2726 57.3468C72.0622 56.8253 71.957 56.2652 71.957 55.6664Z" fill="#091B31"/>
<path d="M84.877 55.6927C84.877 55.0731 84.989 54.5059 85.2132 53.9913C85.4374 53.4767 85.7511 53.0356 86.1547 52.668C86.5617 52.2969 87.0479 52.0099 87.6136 51.8068C88.1826 51.6038 88.812 51.5023 89.5018 51.5023C90.1881 51.5023 90.8157 51.6038 91.3847 51.8068C91.9537 52.0099 92.4401 52.2969 92.8435 52.668C93.2505 53.0356 93.5661 53.4767 93.7901 53.9913C94.0144 54.5059 94.1264 55.0731 94.1264 55.6927C94.1264 56.3159 94.0144 56.8882 93.7901 57.4099C93.5661 57.928 93.2505 58.3744 92.8435 58.7489C92.4401 59.1235 91.9537 59.4157 91.3847 59.6258C90.8157 59.8323 90.1881 59.9357 89.5018 59.9357C88.812 59.9357 88.1826 59.8323 87.6136 59.6258C87.0479 59.4157 86.5617 59.1235 86.1547 58.7489C85.7511 58.3744 85.4374 57.928 85.2132 57.4099C84.989 56.8882 84.877 56.3159 84.877 55.6927ZM86.5168 55.6927C86.5168 56.1163 86.5909 56.4979 86.7392 56.8374C86.891 57.177 87.0996 57.4676 87.3653 57.7091C87.6342 57.9472 87.9498 58.131 88.3119 58.2605C88.6774 58.3901 89.0741 58.4548 89.5018 58.4548C89.9294 58.4548 90.3242 58.3901 90.6863 58.2605C91.0519 58.131 91.3675 57.9472 91.633 57.7091C91.8985 57.4676 92.1072 57.177 92.259 56.8374C92.4107 56.4979 92.4866 56.1163 92.4866 55.6927C92.4866 55.2691 92.4107 54.8893 92.259 54.5532C92.1072 54.2171 91.8985 53.9336 91.633 53.7026C91.3675 53.468 91.0519 53.2895 90.6863 53.1669C90.3242 53.0443 89.9294 52.9831 89.5018 52.9831C89.0741 52.9831 88.6774 53.0443 88.3119 53.1669C87.9498 53.2895 87.6342 53.468 87.3653 53.7026C87.0996 53.9336 86.891 54.2171 86.7392 54.5532C86.5909 54.8893 86.5168 55.2691 86.5168 55.6927Z" fill="#091B31"/>
<path d="M99.1152 51.6125H100.755L105.794 54.2906V51.6125H107.434V59.8201H105.794V56.0551L100.755 53.3927V59.8201H99.1152V51.6125Z" fill="#091B31"/>
<path d="M113.276 57.3784C113.569 57.5463 113.865 57.6987 114.165 57.8352C114.469 57.9683 114.783 58.082 115.107 58.1765C115.431 58.2675 115.771 58.3376 116.126 58.3866C116.485 58.4356 116.866 58.46 117.269 58.46C117.756 58.46 118.169 58.4286 118.511 58.3655C118.852 58.2991 119.13 58.2098 119.344 58.0978C119.561 57.9822 119.718 57.8457 119.815 57.6882C119.914 57.5306 119.964 57.359 119.964 57.1735C119.964 56.876 119.842 56.6415 119.597 56.4699C119.352 56.2948 118.975 56.2073 118.464 56.2073C118.24 56.2073 118.004 56.2231 117.756 56.2545C117.507 56.2826 117.255 56.3142 117 56.3491C116.749 56.3841 116.499 56.4174 116.25 56.4489C116.005 56.4769 115.774 56.4908 115.557 56.4908C115.195 56.4908 114.847 56.4436 114.512 56.3491C114.181 56.2545 113.886 56.1128 113.627 55.9238C113.372 55.7347 113.169 55.4984 113.017 55.2149C112.865 54.9312 112.789 54.6004 112.789 54.2224C112.789 53.9983 112.819 53.776 112.877 53.5554C112.939 53.335 113.036 53.1249 113.167 52.9254C113.302 52.7223 113.474 52.535 113.684 52.3634C113.895 52.1885 114.148 52.0379 114.445 51.9119C114.745 51.7859 115.09 51.6879 115.479 51.6178C115.873 51.5444 116.319 51.5076 116.819 51.5076C117.181 51.5076 117.545 51.5285 117.911 51.5705C118.276 51.6091 118.632 51.665 118.977 51.7386C119.325 51.812 119.659 51.9013 119.98 52.0064C120.301 52.1079 120.599 52.2216 120.875 52.3477L120.156 53.692C119.928 53.5905 119.683 53.4977 119.421 53.4137C119.159 53.3261 118.885 53.251 118.599 53.1878C118.313 53.1249 118.016 53.0759 117.709 53.0408C117.406 53.0023 117.095 52.9831 116.778 52.9831C116.326 52.9831 115.954 53.0164 115.661 53.0829C115.371 53.1495 115.14 53.2351 114.967 53.3402C114.795 53.4417 114.674 53.5572 114.605 53.6867C114.54 53.8128 114.507 53.9389 114.507 54.0649C114.507 54.3099 114.615 54.5112 114.833 54.6688C115.05 54.8228 115.381 54.8998 115.826 54.8998C116.005 54.8998 116.211 54.8875 116.442 54.863C116.676 54.835 116.921 54.8053 117.176 54.7738C117.435 54.7422 117.697 54.7143 117.963 54.6897C118.232 54.6618 118.492 54.6477 118.744 54.6477C119.22 54.6477 119.64 54.7019 120.006 54.8105C120.375 54.919 120.684 55.0749 120.932 55.2779C121.18 55.4774 121.368 55.7208 121.496 56.0078C121.623 56.2913 121.687 56.6099 121.687 56.9635C121.687 57.4361 121.579 57.8579 121.361 58.229C121.147 58.5966 120.841 58.9082 120.44 59.1638C120.044 59.4158 119.564 59.6083 119.002 59.7413C118.44 59.8709 117.814 59.9357 117.125 59.9357C116.669 59.9357 116.224 59.9059 115.79 59.8464C115.355 59.7903 114.938 59.7099 114.538 59.6048C114.141 59.4963 113.762 59.3685 113.4 59.2215C113.041 59.071 112.708 58.9064 112.401 58.7279L113.276 57.3784Z" fill="#091B31"/>
<path d="M129.108 53.0724H126.123V51.6125H133.733V53.0724H130.748V59.8201H129.108V53.0724Z" fill="#091B31"/>
<path d="M138.665 51.6125H142.778C143.399 51.6125 143.936 51.679 144.392 51.812C144.847 51.9416 145.225 52.1306 145.524 52.3793C145.825 52.6278 146.048 52.9306 146.191 53.2877C146.34 53.6447 146.414 54.0491 146.414 54.5007C146.414 54.8053 146.379 55.0958 146.306 55.3724C146.234 55.6455 146.122 55.8976 145.969 56.1286C145.821 56.3597 145.633 56.5661 145.405 56.7482C145.178 56.9267 144.911 57.0755 144.604 57.1946L146.363 59.8201H144.356L142.835 57.4886H142.788L140.305 57.4833V59.8201H138.665V51.6125ZM142.819 56.0446C143.13 56.0446 143.4 56.0078 143.631 55.9342C143.866 55.8608 144.061 55.7574 144.216 55.6245C144.374 55.4915 144.492 55.3304 144.568 55.1413C144.647 54.9488 144.687 54.7352 144.687 54.5007C144.687 54.0421 144.531 53.6885 144.221 53.44C143.911 53.1878 143.443 53.0619 142.819 53.0619H140.305V56.0446H142.819Z" fill="#091B31"/>
<path d="M151.231 51.6125H152.872V56.1339C152.872 56.5049 152.921 56.8357 153.022 57.1262C153.122 57.4134 153.27 57.6567 153.466 57.8562C153.667 58.0558 153.914 58.208 154.206 58.313C154.499 58.4145 154.841 58.4654 155.23 58.4654C155.617 58.4654 155.957 58.4145 156.25 58.313C156.547 58.208 156.792 58.0558 156.99 57.8562C157.189 57.6567 157.34 57.4134 157.439 57.1262C157.539 56.8357 157.59 56.5049 157.59 56.1339V51.6125H159.229V56.3333C159.229 56.8725 159.139 57.3625 158.96 57.8037C158.782 58.2448 158.52 58.6229 158.179 58.938C157.837 59.253 157.419 59.4963 156.922 59.6679C156.429 59.8395 155.865 59.9251 155.23 59.9251C154.597 59.9251 154.03 59.8395 153.535 59.6679C153.041 59.4963 152.624 59.253 152.282 58.938C151.941 58.6229 151.68 58.2448 151.5 57.8037C151.322 57.3625 151.231 56.8725 151.231 56.3333V51.6125Z" fill="#091B31"/>
<path d="M166.847 53.0724H163.862V51.6125H171.472V53.0724H168.486V59.8201H166.847V53.0724Z" fill="#091B31"/>
<path d="M175.928 55.6927C175.928 55.0731 176.04 54.5059 176.265 53.9913C176.489 53.4767 176.803 53.0356 177.206 52.668C177.613 52.2969 178.099 52.0099 178.664 51.8068C179.234 51.6038 179.863 51.5023 180.553 51.5023C181.239 51.5023 181.867 51.6038 182.436 51.8068C183.004 52.0099 183.491 52.2969 183.895 52.668C184.302 53.0356 184.617 53.4767 184.841 53.9913C185.065 54.5059 185.178 55.0731 185.178 55.6927C185.178 56.3159 185.065 56.8882 184.841 57.4099C184.617 57.928 184.302 58.3744 183.895 58.7489C183.491 59.1235 183.004 59.4157 182.436 59.6258C181.867 59.8323 181.239 59.9357 180.553 59.9357C179.863 59.9357 179.234 59.8323 178.664 59.6258C178.099 59.4157 177.613 59.1235 177.206 58.7489C176.803 58.3744 176.489 57.928 176.265 57.4099C176.04 56.8882 175.928 56.3159 175.928 55.6927ZM177.568 55.6927C177.568 56.1163 177.642 56.4979 177.791 56.8374C177.942 57.177 178.151 57.4676 178.417 57.7091C178.686 57.9472 179.001 58.131 179.363 58.2605C179.729 58.3901 180.126 58.4548 180.553 58.4548C180.98 58.4548 181.375 58.3901 181.737 58.2605C182.103 58.131 182.419 57.9472 182.685 57.7091C182.949 57.4676 183.158 57.177 183.31 56.8374C183.462 56.4979 183.538 56.1163 183.538 55.6927C183.538 55.2691 183.462 54.8893 183.31 54.5532C183.158 54.2171 182.949 53.9336 182.685 53.7026C182.419 53.468 182.103 53.2895 181.737 53.1669C181.375 53.0443 180.98 52.9831 180.553 52.9831C180.126 52.9831 179.729 53.0443 179.363 53.1669C179.001 53.2895 178.686 53.468 178.417 53.7026C178.151 53.9336 177.942 54.2171 177.791 54.5532C177.642 54.8893 177.568 55.2691 177.568 55.6927Z" fill="#091B31"/>
<path d="M190.177 51.6125H194.289C194.91 51.6125 195.449 51.679 195.903 51.812C196.358 51.9416 196.736 52.1306 197.037 52.3793C197.336 52.6278 197.559 52.9306 197.704 53.2877C197.852 53.6447 197.926 54.0491 197.926 54.5007C197.926 54.8053 197.89 55.0958 197.817 55.3724C197.745 55.6455 197.633 55.8976 197.482 56.1286C197.333 56.3597 197.144 56.5661 196.918 56.7482C196.69 56.9267 196.422 57.0755 196.116 57.1946L197.874 59.8201H195.867L194.346 57.4886H194.299L191.817 57.4833V59.8201H190.177V51.6125ZM194.331 56.0446C194.641 56.0446 194.912 56.0078 195.143 55.9342C195.377 55.8608 195.572 55.7574 195.728 55.6245C195.886 55.4915 196.004 55.3304 196.079 55.1413C196.159 54.9488 196.198 54.7352 196.198 54.5007C196.198 54.0421 196.043 53.6885 195.732 53.44C195.422 53.1878 194.955 53.0619 194.331 53.0619H191.817V56.0446H194.331Z" fill="#091B31"/>
<path d="M205.806 51.6125H207.544L211.455 59.8201H209.732L209.085 58.4391H204.363L203.737 59.8201H202.009L205.806 51.6125ZM208.439 57.0685L206.691 53.3402L204.989 57.0685H208.439Z" fill="#091B31"/>
</g>
<defs>
<linearGradient id="paint0_linear_16958_5092" x1="18.2037" y1="14.7155" x2="18.2037" y2="23.6783" gradientUnits="userSpaceOnUse">
<stop stop-color="#C5AC6C"/>
<stop offset="1" stop-color="#5F5334"/>
</linearGradient>
<linearGradient id="paint1_linear_16958_5092" x1="18.2613" y1="17.9905" x2="18.2613" y2="26.9532" gradientUnits="userSpaceOnUse">
<stop stop-color="#C5AC6C"/>
<stop offset="1" stop-color="#5F5334"/>
</linearGradient>
<linearGradient id="paint2_linear_16958_5092" x1="18.3189" y1="21.3801" x2="18.3189" y2="30.343" gradientUnits="userSpaceOnUse">
<stop stop-color="#C5AC6C"/>
<stop offset="1" stop-color="#5F5334"/>
</linearGradient>
<linearGradient id="paint3_linear_16958_5092" x1="18.3765" y1="24.7699" x2="18.3765" y2="33.7327" gradientUnits="userSpaceOnUse">
<stop stop-color="#C5AC6C"/>
<stop offset="1" stop-color="#5F5334"/>
</linearGradient>
<linearGradient id="paint4_linear_16958_5092" x1="17.9752" y1="28.5044" x2="17.9752" y2="37.4672" gradientUnits="userSpaceOnUse">
<stop stop-color="#C5AC6C"/>
<stop offset="1" stop-color="#5F5334"/>
</linearGradient>
<linearGradient id="paint5_linear_16958_5092" x1="18.0318" y1="31.7793" x2="18.0318" y2="40.7421" gradientUnits="userSpaceOnUse">
<stop stop-color="#C5AC6C"/>
<stop offset="1" stop-color="#5F5334"/>
</linearGradient>
<linearGradient id="paint6_linear_16958_5092" x1="18.2037" y1="35.0542" x2="18.2037" y2="44.0169" gradientUnits="userSpaceOnUse">
<stop stop-color="#C5AC6C"/>
<stop offset="1" stop-color="#5F5334"/>
</linearGradient>
<linearGradient id="paint7_linear_16958_5092" x1="18.2613" y1="38.4441" x2="18.2613" y2="47.4068" gradientUnits="userSpaceOnUse">
<stop stop-color="#C5AC6C"/>
<stop offset="1" stop-color="#5F5334"/>
</linearGradient>
<linearGradient id="paint8_linear_16958_5092" x1="18.3189" y1="41.8336" x2="18.3189" y2="50.7965" gradientUnits="userSpaceOnUse">
<stop stop-color="#C5AC6C"/>
<stop offset="1" stop-color="#5F5334"/>
</linearGradient>
<linearGradient id="paint9_linear_16958_5092" x1="18.2905" y1="8.22327" x2="18.2905" y2="59.2422" gradientUnits="userSpaceOnUse">
<stop stop-color="#FCEFC1"/>
<stop offset="0.515" stop-color="#CCA955"/>
<stop offset="1" stop-color="#5F3015"/>
</linearGradient>
<linearGradient id="paint10_linear_16958_5092" x1="41.7171" y1="9.48718" x2="41.7171" y2="59.2847" gradientUnits="userSpaceOnUse">
<stop stop-color="#FCEFC1"/>
<stop offset="0.515" stop-color="#CCA955"/>
<stop offset="1" stop-color="#5F3015"/>
</linearGradient>
<clipPath id="clip0_16958_5092">
<rect width="220" height="68.1941" fill="white"/>
</clipPath>
</defs>
</svg>
