<svg width="130" height="25" viewBox="0 0 130 25" fill="none" xmlns="http://www.w3.org/2000/svg">
<path d="M31.7319 8.2479C32.6744 7.183 33.5181 6.16743 34.5099 5.02271C35.5018 3.87799 36.8014 2.02354 37.9227 2L43.6753 2.04203C40.7263 5.37927 37.9233 8.61649 35.0105 11.9948C37.9062 15.6961 41.2292 19.1527 44.0265 22.8844H37.5865C36.8338 22.8884 35.3512 20.9133 34.3173 19.7135C33.2834 18.5137 32.3279 17.3998 31.3806 16.2101C29.4227 18.479 27.4755 20.6117 25.5703 22.8551C23.4767 22.923 21.1664 22.8656 19.0693 22.8844C22.057 19.3421 25.1259 15.9111 28.1283 12.3797C27.1283 11.176 26.5403 10.4477 25.2346 8.89235C24.8154 8.39291 24.0108 7.47849 24.0108 7.47849C24.0108 7.47849 21.3632 7.4683 20.0227 7.42825C21.9899 11.9492 21.0356 18.0251 16.8519 21.0015C13.7259 23.6071 5.79204 22.87 0 22.8844L0.0279347 7.44311H5.17998L5.15204 17.4982C7.38714 17.4191 10.2441 17.5743 12.1848 17.4229C14.1254 17.2716 15.9974 14.9009 15.9936 12.5897C15.9897 10.2784 14.4404 7.5749 11.5518 7.48195C8.66332 7.389 4.06995 7.52976 0.0279347 7.44311C0.685601 6.43233 1.19547 5.50963 1.74523 4.59739C2.29498 3.68516 2.62359 3.02398 3.24765 2.08661L23.5355 2.04203C25.0106 2.07816 25.8985 2.12534 26.5927 2.12543C27.6231 3.2603 30.3444 6.4599 31.7319 8.2479Z" fill="#0672CB"/>
<path d="M118.232 17.8507L118.884 14.6146L128.718 11.3574L128.382 13.1226L119.851 9.86539L120.439 6.96545L130 10.79L129.349 14.0262L118.232 17.8507Z" fill="#F9C41E"/>
<path d="M55.7945 7.48368L55.143 10.7198L45.2875 13.977L45.6237 12.2118L54.1764 15.469L53.609 18.369L44.0266 14.5444L44.678 11.3082L55.7945 7.48368Z" fill="#F9C41E"/>
<path d="M51.9778 22.3826L62.758 2.5874H66.4355L55.6553 22.3826H51.9778Z" fill="#F9C41E"/>
<path d="M62.7798 19.8803L65.8899 4.28786H69.8825L68.6637 10.424L67.6971 14.1434L67.0877 17.3166L66.5833 19.8803H62.7798ZM70.534 20.0694C69.7214 20.0694 68.9999 19.9293 68.3695 19.6491C67.7391 19.3549 67.2488 18.8996 66.8985 18.2832C66.5483 17.6528 66.3732 16.8402 66.3732 15.8456C66.3732 14.8369 66.4923 13.8843 66.7304 12.9877C66.9686 12.0771 67.3188 11.2715 67.7811 10.5711C68.2574 9.87059 68.8388 9.31722 69.5253 8.91095C70.2118 8.50468 71.0033 8.30154 71.8999 8.30154C72.7264 8.30154 73.504 8.50468 74.2324 8.91095C74.9749 9.31722 75.5703 9.90561 76.0186 10.6761C76.4809 11.4326 76.7121 12.3643 76.7121 13.471C76.7121 14.4236 76.551 15.2992 76.2288 16.0978C75.9066 16.8963 75.4583 17.5968 74.8839 18.1992C74.3235 18.7875 73.6721 19.2499 72.9296 19.5861C72.1871 19.9083 71.3885 20.0694 70.534 20.0694ZM69.9666 16.8543C70.4989 16.8543 70.9683 16.7212 71.3745 16.455C71.7808 16.1888 72.096 15.8176 72.3202 15.3412C72.5583 14.8649 72.6774 14.3116 72.6774 13.6811C72.6774 13.0227 72.4883 12.4973 72.11 12.1051C71.7318 11.6988 71.1994 11.4957 70.513 11.4957C69.9946 11.4957 69.5253 11.6358 69.105 11.916C68.6987 12.1821 68.3765 12.5534 68.1384 13.0297C67.9142 13.506 67.8021 14.0594 67.8021 14.6898C67.8021 15.3483 67.9913 15.8736 68.3695 16.2659C68.7478 16.6581 69.2801 16.8543 69.9666 16.8543Z" fill="#0672CB"/>
<path d="M76.1303 19.8803L78.3998 8.49067H82.1823L81.5309 11.7268L81.1526 10.8022C81.657 9.8916 82.3224 9.24717 83.149 8.86892C83.9755 8.49067 84.9422 8.30154 86.0489 8.30154L85.3554 11.8949C85.1873 11.8669 85.0332 11.8529 84.8931 11.8529C84.753 11.8389 84.6059 11.8319 84.4518 11.8319C83.5833 11.8319 82.8688 12.042 82.3084 12.4623C81.762 12.8686 81.3978 13.548 81.2157 14.5007L80.1229 19.8803H76.1303Z" fill="#0672CB"/>
<path d="M89.233 20.0694C88.4205 20.0694 87.643 19.8663 86.9005 19.46C86.158 19.0537 85.5556 18.4653 85.0933 17.6948C84.645 16.9243 84.4208 15.9857 84.4208 14.8789C84.4208 13.9263 84.5819 13.0507 84.9041 12.2522C85.2263 11.4536 85.6676 10.7602 86.228 10.1718C86.8024 9.5834 87.4608 9.12809 88.2033 8.80588C88.9598 8.46965 89.7584 8.30154 90.5989 8.30154C91.5236 8.30154 92.3151 8.48366 92.9735 8.8479C93.646 9.19814 94.1363 9.77252 94.4445 10.5711C94.7527 11.3556 94.8228 12.4203 94.6546 13.7652C94.5286 15.04 94.2274 16.1538 93.751 17.1064C93.2747 18.0591 92.6583 18.7946 91.9018 19.3129C91.1453 19.8172 90.2557 20.0694 89.233 20.0694ZM90.6199 16.8543C91.1523 16.8543 91.6216 16.7212 92.0279 16.455C92.4342 16.1888 92.7494 15.8176 92.9735 15.3412C93.2117 14.8649 93.3308 14.3116 93.3308 13.6811C93.3308 13.0227 93.1416 12.4973 92.7634 12.1051C92.3851 11.6988 91.8528 11.4957 91.1663 11.4957C90.648 11.4957 90.1787 11.6358 89.7584 11.916C89.3521 12.1821 89.0299 12.5534 88.7917 13.0297C88.5676 13.506 88.4555 14.0594 88.4555 14.6898C88.4555 15.3483 88.6446 15.8736 89.0229 16.2659C89.4011 16.6581 89.9335 16.8543 90.6199 16.8543ZM92.3011 19.8803L92.7003 17.968L93.4568 14.2065L93.9612 10.445L94.3604 8.49067H98.3531L96.0836 19.8803H92.3011Z" fill="#0672CB"/>
<path d="M101.848 20.0694C100.839 20.0694 99.8867 19.9643 98.9901 19.7542C98.0935 19.53 97.4 19.2639 96.9097 18.9557L98.3597 16.1608C98.892 16.497 99.5155 16.7562 100.23 16.9383C100.944 17.1204 101.638 17.2115 102.31 17.2115C102.969 17.2115 103.438 17.1414 103.718 17.0014C103.998 16.8473 104.139 16.6441 104.139 16.3919C104.139 16.1678 103.991 16.0067 103.697 15.9086C103.417 15.7965 103.053 15.7055 102.605 15.6354C102.156 15.5654 101.68 15.4743 101.176 15.3623C100.685 15.2502 100.216 15.0891 99.7676 14.8789C99.3193 14.6688 98.9481 14.3746 98.6539 13.9963C98.3737 13.6041 98.2336 13.0857 98.2336 12.4413C98.2336 11.5307 98.4998 10.7672 99.0321 10.1508C99.5645 9.53436 100.286 9.07205 101.197 8.76385C102.121 8.45564 103.158 8.30154 104.307 8.30154C105.119 8.30154 105.904 8.37859 106.66 8.53269C107.417 8.6868 108.075 8.91095 108.636 9.20514L107.228 12C106.667 11.6638 106.093 11.4396 105.504 11.3276C104.916 11.2015 104.363 11.1384 103.844 11.1384C103.186 11.1384 102.717 11.2225 102.436 11.3906C102.156 11.5587 102.016 11.7619 102.016 12C102.016 12.2102 102.156 12.3783 102.436 12.5043C102.731 12.6164 103.095 12.7145 103.529 12.7985C103.977 12.8686 104.454 12.9597 104.958 13.0717C105.462 13.1698 105.932 13.3239 106.366 13.534C106.814 13.7442 107.179 14.0384 107.459 14.4166C107.753 14.7949 107.9 15.3062 107.9 15.9507C107.9 16.8473 107.627 17.6038 107.081 18.2202C106.548 18.8366 105.827 19.2989 104.916 19.6071C104.005 19.9153 102.983 20.0694 101.848 20.0694Z" fill="#0672CB"/>
<path d="M107.624 19.8803L109.894 8.49067H113.865L111.596 19.8803H107.624ZM112.436 7.22982C111.736 7.22982 111.176 7.0407 110.755 6.66244C110.349 6.27018 110.146 5.80087 110.146 5.2545C110.146 4.61007 110.377 4.07071 110.839 3.63642C111.316 3.20213 111.939 2.98499 112.71 2.98499C113.41 2.98499 113.97 3.16711 114.391 3.53135C114.811 3.89559 115.021 4.3509 115.021 4.89726C115.021 5.58372 114.783 6.1441 114.307 6.57839C113.83 7.01268 113.207 7.22982 112.436 7.22982Z" fill="#0672CB"/>
<path d="M112.91 19.8803L116.02 4.28786H120.013L116.902 19.8803H112.91Z" fill="#0672CB"/>
<path d="M0 6.62036H5.25352V11.0514L0 9.90381V6.62036Z" fill="#0A5D82"/>
</svg>
