<svg width="220" height="120" viewBox="0 0 220 120" fill="none" xmlns="http://www.w3.org/2000/svg">
<g clip-path="url(#clip0_16967_1730)">
<path d="M8.75913 50.868L8.0127 50.0063L35.0563 26.2778L35.9175 27.0822L8.75913 50.868Z" fill="white"/>
<path d="M15.3623 28.9779L15.9113 27.9785L58.6409 51.1424L58.1855 52.2296L15.3623 28.9779Z" fill="white"/>
<path d="M13.9261 49.7187L13.1797 48.8569L22.3664 40.7559L23.2276 41.5603L13.9261 49.7187Z" fill="white"/>
<path d="M13.9837 52.9935L13.2373 52.1317L22.424 44.0308L23.2853 44.8351L13.9837 52.9935Z" fill="white"/>
<path d="M14.0414 56.3837L13.2949 55.522L22.4817 47.4209L23.3429 48.2253L14.0414 56.3837Z" fill="white"/>
<path d="M14.099 59.7734L13.3525 58.9116L22.5393 50.8105L23.4006 51.615L14.099 59.7734Z" fill="white"/>
<path d="M13.6976 63.5078L12.9512 62.646L22.1379 54.5449L22.9992 55.3492L13.6976 63.5078Z" fill="white"/>
<path d="M13.7542 66.7827L13.0078 65.9209L22.1946 57.8198L23.0558 58.6243L13.7542 66.7827Z" fill="white"/>
<path d="M13.9261 70.0574L13.1797 69.1956L22.3664 61.0947L23.2276 61.899L13.9261 70.0574Z" fill="white"/>
<path d="M13.9837 73.4471L13.2373 72.5853L22.424 64.4844L23.2853 65.2887L13.9837 73.4471Z" fill="white"/>
<path d="M14.0414 76.8369L13.2949 75.9751L22.4817 67.874L23.3429 68.6785L14.0414 76.8369Z" fill="white"/>
<path fill-rule="evenodd" clip-rule="evenodd" d="M21.9653 34.2637H23.3434V83.9038H25.4103V85.2826H23.3434H21.9653H14.5011H13.1231H11.1709V83.9038H13.1231V40.9284H14.5011V78.251L21.9653 71.669V34.2637Z" fill="white"/>
<path fill-rule="evenodd" clip-rule="evenodd" d="M54.1771 83.9464V75.2284H36.9519V50.8105L54.1771 60.1181V50.0637L27.3633 35.5278V79.5374L32.5303 85.2822V85.3254H56.0714V83.9464H54.1771Z" fill="white"/>
<path d="M63.4774 47.2508L30.2031 28.2681" stroke="white" stroke-width="0.5"/>
<path d="M62.8461 44.4805L31.1367 26.3999" stroke="white" stroke-width="0.5"/>
<path d="M63.078 64.7918L36.6846 50.4771" stroke="white" stroke-width="0.5"/>
<path d="M23.6699 27.7651V83.809" stroke="white" stroke-width="0.5"/>
<path d="M8.58984 35.2354V89.0404" stroke="white" stroke-width="0.5"/>
<path d="M27.834 26.0405V88.9821" stroke="white" stroke-width="0.5"/>
<path d="M58.4229 35.2354V88.9734" stroke="white" stroke-width="0.5"/>
<path d="M5 85.2782L62.6167 85.2344" stroke="white" stroke-width="0.5"/>
<path d="M71.957 42.4453H77.3886V69.0262H71.957V42.4453Z" fill="white"/>
<path d="M82.4629 55.489C82.4629 53.6184 82.8148 51.8724 83.5186 50.2511C84.2223 48.6185 85.2495 47.2013 86.6003 45.9995C87.9511 44.7978 89.6084 43.8511 91.5721 43.1595C93.5472 42.4678 95.806 42.1221 98.3487 42.1221C99.2682 42.1221 100.188 42.1731 101.107 42.2752C102.038 42.3659 102.952 42.5132 103.848 42.7174C104.756 42.9214 105.636 43.1822 106.488 43.4996C107.35 43.8057 108.167 44.1741 108.939 44.605L106.453 48.6864C105.988 48.4144 105.46 48.1707 104.87 47.9552C104.28 47.7285 103.644 47.5414 102.963 47.3941C102.293 47.2353 101.595 47.1162 100.869 47.0368C100.154 46.9576 99.4328 46.9179 98.7063 46.9179C97.0263 46.9179 95.528 47.1332 94.2112 47.5641C92.8946 47.9836 91.7821 48.5788 90.874 49.3498C89.966 50.1094 89.2736 51.0221 88.7968 52.0877C88.3201 53.1535 88.0816 54.3212 88.0816 55.5911C88.0816 56.9062 88.3314 58.1137 88.8308 59.2133C89.3303 60.313 90.0397 61.2597 90.9592 62.0533C91.8786 62.847 92.9911 63.4706 94.2964 63.9241C95.6017 64.3663 97.0603 64.5873 98.6723 64.5873C99.9549 64.5873 101.13 64.4457 102.197 64.1621C103.264 63.8674 104.195 63.4536 104.989 62.9207C105.784 62.3878 106.431 61.7473 106.93 60.999C107.43 60.2394 107.759 59.3891 107.918 58.4481H98.6211V54.0095H112.77V54.0265L112.787 54.0095C113.071 55.3699 113.156 56.6964 113.043 57.9889C112.941 59.27 112.645 60.4831 112.157 61.6282C111.681 62.762 111.022 63.805 110.182 64.7574C109.342 65.7097 108.338 66.5318 107.169 67.2233C105.999 67.9035 104.671 68.4364 103.184 68.8219C101.697 69.196 100.068 69.3831 98.2977 69.3831C95.8232 69.3831 93.604 69.0203 91.6403 68.2946C89.6879 67.5691 88.0306 66.577 86.6685 65.3185C85.3063 64.0601 84.262 62.5863 83.5356 60.897C82.8205 59.2077 82.4629 57.405 82.4629 55.489Z" fill="white"/>
<path d="M128.231 42.4453H133.952L146.824 69.0262H141.154L139.026 64.5534H123.481L121.42 69.0262H115.733L128.231 42.4453ZM136.898 60.1148L131.143 48.0404L125.541 60.1148H136.898Z" fill="white"/>
<path d="M150.962 42.4453H164.992C167.035 42.4453 168.806 42.6665 170.304 43.1086C171.802 43.5508 173.045 44.1913 174.033 45.0303C175.02 45.8579 175.752 46.8727 176.228 48.0745C176.717 49.2762 176.961 50.6311 176.961 52.1389C176.961 53.5561 176.723 54.8656 176.246 56.0674C175.769 57.2692 175.037 58.3121 174.049 59.1965C173.074 60.0695 171.836 60.7553 170.338 61.2542C168.839 61.7418 167.068 61.9855 165.025 61.9855L156.359 61.9686V69.0262H150.962V42.4453ZM165.128 57.3089C166.15 57.3089 167.041 57.1898 167.8 56.9517C168.572 56.7022 169.214 56.3565 169.724 55.9143C170.248 55.4608 170.633 54.9165 170.883 54.2817C171.144 53.6355 171.275 52.9212 171.275 52.1389C171.275 50.563 170.758 49.3386 169.724 48.4656C168.703 47.5812 167.171 47.1391 165.128 47.1391H156.359V57.3089H165.128Z" fill="white"/>
<path d="M181.303 55.6592C181.303 53.6525 181.672 51.8158 182.41 50.1491C183.147 48.4825 184.18 47.0539 185.508 45.8635C186.848 44.6618 188.449 43.7321 190.311 43.0746C192.184 42.417 194.254 42.0881 196.524 42.0881C198.784 42.0881 200.85 42.417 202.723 43.0746C204.596 43.7321 206.196 44.6618 207.524 45.8635C208.864 47.0539 209.901 48.4825 210.639 50.1491C211.378 51.8158 211.747 53.6525 211.747 55.6592C211.747 57.6772 211.378 59.5308 210.639 61.2201C209.901 62.8981 208.864 64.3437 207.524 65.5568C206.196 66.7699 204.596 67.7166 202.723 68.3968C200.85 69.0657 198.784 69.4002 196.524 69.4002C194.254 69.4002 192.184 69.0657 190.311 68.3968C188.449 67.7166 186.848 66.7699 185.508 65.5568C184.18 64.3437 183.147 62.8981 182.41 61.2201C181.672 59.5308 181.303 57.6772 181.303 55.6592ZM186.701 55.6592C186.701 57.0309 186.944 58.2667 187.432 59.3665C187.932 60.4662 188.619 61.4073 189.492 62.1895C190.377 62.9605 191.416 63.5558 192.608 63.9752C193.813 64.3947 195.117 64.6044 196.524 64.6044C197.932 64.6044 199.233 64.3947 200.424 63.9752C201.627 63.5558 202.666 62.9605 203.54 62.1895C204.414 61.4073 205.1 60.4662 205.6 59.3665C206.1 58.2667 206.348 57.0309 206.348 55.6592C206.348 54.2873 206.1 53.0572 205.6 51.9689C205.1 50.8804 204.414 49.962 203.54 49.2138C202.666 48.4542 201.627 47.8759 200.424 47.4791C199.233 47.0823 197.932 46.884 196.524 46.884C195.117 46.884 193.813 47.0823 192.608 47.4791C191.416 47.8759 190.377 48.4542 189.492 49.2138C188.619 49.962 187.932 50.8804 187.432 51.9689C186.944 53.0572 186.701 54.2873 186.701 55.6592ZM190.191 37.7176L201.667 34.5034L202.858 38.721L191.246 41.425L190.191 37.7176Z" fill="white"/>
<path d="M71.957 81.7068C71.957 81.1223 72.0657 80.5779 72.283 80.0738C72.5003 79.5662 72.8141 79.1268 73.2246 78.7557C73.6384 78.3811 74.1419 78.087 74.7351 77.8735C75.3317 77.6599 76.006 77.5532 76.7578 77.5532C77.4165 77.5532 78.02 77.6214 78.5684 77.7579C79.1201 77.891 79.6323 78.0959 80.1047 78.3724L79.3494 79.6326C79.208 79.5381 79.0443 79.4541 78.858 79.3806C78.6753 79.3071 78.4787 79.2459 78.2683 79.1969C78.0614 79.1444 77.8459 79.1041 77.6217 79.076C77.4009 79.048 77.182 79.034 76.9647 79.034C76.4404 79.034 75.9731 79.1006 75.5628 79.2336C75.1524 79.3631 74.8057 79.5468 74.5229 79.785C74.2436 80.0196 74.0297 80.3013 73.8815 80.6304C73.7366 80.9559 73.6643 81.3148 73.6643 81.7068C73.6643 82.1129 73.7401 82.4857 73.8918 82.8254C74.0435 83.1649 74.2625 83.4591 74.5488 83.7076C74.8385 83.9526 75.1903 84.1452 75.6042 84.2852C76.0215 84.4218 76.4922 84.49 77.0164 84.49C77.2543 84.49 77.4906 84.4725 77.7251 84.4375C77.9597 84.4024 78.1855 84.3552 78.4029 84.2957C78.6236 84.2328 78.8356 84.1592 79.039 84.0751C79.2426 83.9876 79.4322 83.8931 79.6081 83.7916L80.3634 85.0518C79.9219 85.339 79.4116 85.5648 78.8321 85.7292C78.2527 85.8903 77.6372 85.9708 76.9854 85.9708C76.1542 85.9708 75.4249 85.8623 74.7971 85.6452C74.1695 85.4248 73.6452 85.1236 73.2246 84.7421C72.8038 84.3569 72.4865 83.9053 72.2726 83.3872C72.0622 82.8657 71.957 82.3056 71.957 81.7068Z" fill="white"/>
<path d="M84.877 81.7333C84.877 81.1138 84.989 80.5466 85.2132 80.032C85.4374 79.5174 85.7511 79.0762 86.1547 78.7087C86.5617 78.3376 87.0479 78.0506 87.6136 77.8474C88.1826 77.6445 88.812 77.543 89.5018 77.543C90.1881 77.543 90.8157 77.6445 91.3847 77.8474C91.9537 78.0506 92.4401 78.3376 92.8435 78.7087C93.2505 79.0762 93.5661 79.5174 93.7901 80.032C94.0144 80.5466 94.1264 81.1138 94.1264 81.7333C94.1264 82.3565 94.0144 82.9288 93.7901 83.4506C93.5661 83.9686 93.2505 84.415 92.8435 84.7896C92.4401 85.1641 91.9537 85.4564 91.3847 85.6665C90.8157 85.873 90.1881 85.9764 89.5018 85.9764C88.812 85.9764 88.1826 85.873 87.6136 85.6665C87.0479 85.4564 86.5617 85.1641 86.1547 84.7896C85.7511 84.415 85.4374 83.9686 85.2132 83.4506C84.989 82.9288 84.877 82.3565 84.877 81.7333ZM86.5168 81.7333C86.5168 82.1569 86.5909 82.5386 86.7392 82.8781C86.891 83.2176 87.0996 83.5083 87.3653 83.7498C87.6342 83.9878 87.9498 84.1716 88.3119 84.3012C88.6774 84.4307 89.0741 84.4954 89.5018 84.4954C89.9294 84.4954 90.3242 84.4307 90.6863 84.3012C91.0519 84.1716 91.3675 83.9878 91.633 83.7498C91.8985 83.5083 92.1072 83.2176 92.259 82.8781C92.4107 82.5386 92.4866 82.1569 92.4866 81.7333C92.4866 81.3098 92.4107 80.93 92.259 80.5938C92.1072 80.2578 91.8985 79.9743 91.633 79.7432C91.3675 79.5087 91.0519 79.3301 90.6863 79.2075C90.3242 79.085 89.9294 79.0238 89.5018 79.0238C89.0741 79.0238 88.6774 79.085 88.3119 79.2075C87.9498 79.3301 87.6342 79.5087 87.3653 79.7432C87.0996 79.9743 86.891 80.2578 86.7392 80.5938C86.5909 80.93 86.5168 81.3098 86.5168 81.7333Z" fill="white"/>
<path d="M99.1152 77.6533H100.755L105.794 80.3314V77.6533H107.434V85.8609H105.794V82.0958L100.755 79.4335V85.8609H99.1152V77.6533Z" fill="white"/>
<path d="M113.276 83.4191C113.569 83.5871 113.865 83.7395 114.165 83.876C114.469 84.009 114.783 84.1227 115.107 84.2173C115.431 84.3083 115.771 84.3784 116.126 84.4274C116.485 84.4764 116.866 84.5008 117.269 84.5008C117.756 84.5008 118.169 84.4694 118.511 84.4063C118.852 84.3398 119.13 84.2506 119.344 84.1386C119.561 84.023 119.718 83.8865 119.815 83.729C119.914 83.5714 119.964 83.3998 119.964 83.2143C119.964 82.9168 119.842 82.6822 119.597 82.5107C119.352 82.3356 118.975 82.2481 118.464 82.2481C118.24 82.2481 118.004 82.2639 117.756 82.2953C117.507 82.3234 117.255 82.3549 117 82.3898C116.749 82.4249 116.499 82.4582 116.25 82.4897C116.005 82.5176 115.774 82.5316 115.557 82.5316C115.195 82.5316 114.847 82.4843 114.512 82.3898C114.181 82.2953 113.886 82.1535 113.627 81.9645C113.372 81.7755 113.169 81.5392 113.017 81.2557C112.865 80.972 112.789 80.6412 112.789 80.2632C112.789 80.0391 112.819 79.8168 112.877 79.5962C112.939 79.3758 113.036 79.1657 113.167 78.9662C113.302 78.763 113.474 78.5758 113.684 78.4042C113.895 78.2293 114.148 78.0786 114.445 77.9527C114.745 77.8266 115.09 77.7286 115.479 77.6586C115.873 77.5851 116.319 77.5483 116.819 77.5483C117.181 77.5483 117.545 77.5693 117.911 77.6113C118.276 77.6498 118.632 77.7058 118.977 77.7794C119.325 77.8528 119.659 77.9421 119.98 78.0472C120.301 78.1487 120.599 78.2624 120.875 78.3885L120.156 79.7327C119.928 79.6312 119.683 79.5385 119.421 79.4544C119.159 79.3669 118.885 79.2917 118.599 79.2286C118.313 79.1657 118.016 79.1167 117.709 79.0816C117.406 79.0431 117.095 79.0239 116.778 79.0239C116.326 79.0239 115.954 79.0572 115.661 79.1236C115.371 79.1902 115.14 79.2759 114.967 79.381C114.795 79.4825 114.674 79.5979 114.605 79.7275C114.54 79.8536 114.507 79.9796 114.507 80.1057C114.507 80.3507 114.615 80.5519 114.833 80.7095C115.05 80.8635 115.381 80.9406 115.826 80.9406C116.005 80.9406 116.211 80.9282 116.442 80.9038C116.676 80.8757 116.921 80.8461 117.176 80.8145C117.435 80.783 117.697 80.7551 117.963 80.7305C118.232 80.7026 118.492 80.6885 118.744 80.6885C119.22 80.6885 119.64 80.7427 120.006 80.8513C120.375 80.9598 120.684 81.1157 120.932 81.3186C121.18 81.5181 121.368 81.7615 121.496 82.0486C121.623 82.3321 121.687 82.6507 121.687 83.0043C121.687 83.4769 121.579 83.8987 121.361 84.2697C121.147 84.6373 120.841 84.9489 120.44 85.2045C120.044 85.4565 119.564 85.649 119.002 85.7821C118.44 85.9116 117.814 85.9765 117.125 85.9765C116.669 85.9765 116.224 85.9467 115.79 85.8872C115.355 85.8311 114.938 85.7507 114.538 85.6456C114.141 85.5371 113.762 85.4093 113.4 85.2623C113.041 85.1118 112.708 84.9472 112.401 84.7686L113.276 83.4191Z" fill="white"/>
<path d="M129.108 79.1132H126.123V77.6533H133.733V79.1132H130.748V85.8609H129.108V79.1132Z" fill="white"/>
<path d="M138.665 77.6533H142.778C143.399 77.6533 143.936 77.7198 144.392 77.8528C144.847 77.9824 145.225 78.1714 145.524 78.42C145.825 78.6685 146.048 78.9714 146.191 79.3285C146.34 79.6855 146.414 80.0898 146.414 80.5415C146.414 80.8461 146.379 81.1366 146.306 81.4132C146.234 81.6862 146.122 81.9383 145.969 82.1694C145.821 82.4004 145.633 82.6069 145.405 82.789C145.178 82.9675 144.911 83.1163 144.604 83.2353L146.363 85.8609H144.356L142.835 83.5293H142.788L140.305 83.5241V85.8609H138.665V77.6533ZM142.819 82.0854C143.13 82.0854 143.4 82.0486 143.631 81.975C143.866 81.9016 144.061 81.7982 144.216 81.6653C144.374 81.5322 144.492 81.3711 144.568 81.1821C144.647 80.9896 144.687 80.776 144.687 80.5415C144.687 80.0829 144.531 79.7292 144.221 79.4807C143.911 79.2286 143.443 79.1027 142.819 79.1027H140.305V82.0854H142.819Z" fill="white"/>
<path d="M151.231 77.6533H152.872V82.1746C152.872 82.5457 152.921 82.8765 153.022 83.167C153.122 83.4542 153.27 83.6974 153.466 83.8969C153.667 84.0966 153.914 84.2488 154.206 84.3538C154.499 84.4553 154.841 84.5062 155.23 84.5062C155.617 84.5062 155.957 84.4553 156.25 84.3538C156.547 84.2488 156.792 84.0966 156.99 83.8969C157.189 83.6974 157.34 83.4542 157.439 83.167C157.539 82.8765 157.59 82.5457 157.59 82.1746V77.6533H159.229V82.3741C159.229 82.9133 159.139 83.4033 158.96 83.8444C158.782 84.2856 158.52 84.6636 158.179 84.9787C157.837 85.2938 157.419 85.5371 156.922 85.7087C156.429 85.8802 155.865 85.9659 155.23 85.9659C154.597 85.9659 154.03 85.8802 153.535 85.7087C153.041 85.5371 152.624 85.2938 152.282 84.9787C151.941 84.6636 151.68 84.2856 151.5 83.8444C151.322 83.4033 151.231 82.9133 151.231 82.3741V77.6533Z" fill="white"/>
<path d="M166.847 79.1132H163.862V77.6533H171.472V79.1132H168.486V85.8609H166.847V79.1132Z" fill="white"/>
<path d="M175.928 81.7333C175.928 81.1138 176.04 80.5466 176.265 80.032C176.489 79.5174 176.803 79.0762 177.206 78.7087C177.613 78.3376 178.099 78.0506 178.664 77.8474C179.234 77.6445 179.863 77.543 180.553 77.543C181.239 77.543 181.867 77.6445 182.436 77.8474C183.004 78.0506 183.491 78.3376 183.895 78.7087C184.302 79.0762 184.617 79.5174 184.841 80.032C185.065 80.5466 185.178 81.1138 185.178 81.7333C185.178 82.3565 185.065 82.9288 184.841 83.4506C184.617 83.9686 184.302 84.415 183.895 84.7896C183.491 85.1641 183.004 85.4564 182.436 85.6665C181.867 85.873 181.239 85.9764 180.553 85.9764C179.863 85.9764 179.234 85.873 178.664 85.6665C178.099 85.4564 177.613 85.1641 177.206 84.7896C176.803 84.415 176.489 83.9686 176.265 83.4506C176.04 82.9288 175.928 82.3565 175.928 81.7333ZM177.568 81.7333C177.568 82.1569 177.642 82.5386 177.791 82.8781C177.942 83.2176 178.151 83.5083 178.417 83.7498C178.686 83.9878 179.001 84.1716 179.363 84.3012C179.729 84.4307 180.126 84.4954 180.553 84.4954C180.98 84.4954 181.375 84.4307 181.737 84.3012C182.103 84.1716 182.419 83.9878 182.685 83.7498C182.949 83.5083 183.158 83.2176 183.31 82.8781C183.462 82.5386 183.538 82.1569 183.538 81.7333C183.538 81.3098 183.462 80.93 183.31 80.5938C183.158 80.2578 182.949 79.9743 182.685 79.7432C182.419 79.5087 182.103 79.3301 181.737 79.2075C181.375 79.085 180.98 79.0238 180.553 79.0238C180.126 79.0238 179.729 79.085 179.363 79.2075C179.001 79.3301 178.686 79.5087 178.417 79.7432C178.151 79.9743 177.942 80.2578 177.791 80.5938C177.642 80.93 177.568 81.3098 177.568 81.7333Z" fill="white"/>
<path d="M190.177 77.6533H194.289C194.91 77.6533 195.449 77.7198 195.903 77.8528C196.358 77.9824 196.736 78.1714 197.037 78.42C197.336 78.6685 197.559 78.9714 197.704 79.3285C197.852 79.6855 197.926 80.0898 197.926 80.5415C197.926 80.8461 197.89 81.1366 197.817 81.4132C197.745 81.6862 197.633 81.9383 197.482 82.1694C197.333 82.4004 197.144 82.6069 196.918 82.789C196.69 82.9675 196.422 83.1163 196.116 83.2353L197.874 85.8609H195.867L194.346 83.5293H194.299L191.817 83.5241V85.8609H190.177V77.6533ZM194.331 82.0854C194.641 82.0854 194.912 82.0486 195.143 81.975C195.377 81.9016 195.572 81.7982 195.728 81.6653C195.886 81.5322 196.004 81.3711 196.079 81.1821C196.159 80.9896 196.198 80.776 196.198 80.5415C196.198 80.0829 196.043 79.7292 195.732 79.4807C195.422 79.2286 194.955 79.1027 194.331 79.1027H191.817V82.0854H194.331Z" fill="white"/>
<path d="M205.806 77.6533H207.544L211.455 85.8609H209.732L209.085 84.4799H204.363L203.737 85.8609H202.009L205.806 77.6533ZM208.439 83.1093L206.691 79.381L204.989 83.1093H208.439Z" fill="white"/>
</g>
<defs>
<clipPath id="clip0_16967_1730">
<rect width="220" height="68.1941" fill="white" transform="translate(0 26.0405)"/>
</clipPath>
</defs>
</svg>
